<mxfile host="app.diagrams.net" modified="2023-01-24T13:58:53.262Z" agent="5.0 (Windows NT 10.0; Win64; x64) AppleWebKit/537.36 (KHTML, like Gecko) Chrome/109.0.0.0 Safari/537.36" etag="K1KKElFaMzQc0H9wrVSf" version="20.8.10" type="github">
  <diagram name="Page-1" id="Q-o-AhBrVfZujIOCfdRh">
    <mxGraphModel dx="1050" dy="541" grid="1" gridSize="10" guides="1" tooltips="1" connect="1" arrows="1" fold="1" page="1" pageScale="1" pageWidth="850" pageHeight="1100" math="0" shadow="0">
      <root>
        <mxCell id="0" />
        <mxCell id="1" parent="0" />
        <mxCell id="AwRWMF-0MMhbJyFxjmx6-9" value="" style="edgeStyle=orthogonalEdgeStyle;rounded=0;orthogonalLoop=1;jettySize=auto;html=1;" edge="1" parent="1" source="AwRWMF-0MMhbJyFxjmx6-1" target="AwRWMF-0MMhbJyFxjmx6-2">
          <mxGeometry relative="1" as="geometry" />
        </mxCell>
        <mxCell id="AwRWMF-0MMhbJyFxjmx6-1" value="start" style="ellipse;whiteSpace=wrap;html=1;" vertex="1" parent="1">
          <mxGeometry x="340" y="40" width="120" height="80" as="geometry" />
        </mxCell>
        <mxCell id="AwRWMF-0MMhbJyFxjmx6-8" value="" style="edgeStyle=orthogonalEdgeStyle;rounded=0;orthogonalLoop=1;jettySize=auto;html=1;" edge="1" parent="1" source="AwRWMF-0MMhbJyFxjmx6-2">
          <mxGeometry relative="1" as="geometry">
            <mxPoint x="400" y="300" as="targetPoint" />
          </mxGeometry>
        </mxCell>
        <mxCell id="AwRWMF-0MMhbJyFxjmx6-2" value="declare&lt;br&gt;a&lt;br&gt;b&lt;br&gt;c" style="shape=hexagon;perimeter=hexagonPerimeter2;whiteSpace=wrap;html=1;fixedSize=1;" vertex="1" parent="1">
          <mxGeometry x="340" y="160" width="120" height="80" as="geometry" />
        </mxCell>
        <mxCell id="AwRWMF-0MMhbJyFxjmx6-20" style="edgeStyle=orthogonalEdgeStyle;rounded=0;orthogonalLoop=1;jettySize=auto;html=1;entryX=0.5;entryY=0;entryDx=0;entryDy=0;" edge="1" parent="1" source="AwRWMF-0MMhbJyFxjmx6-14" target="AwRWMF-0MMhbJyFxjmx6-17">
          <mxGeometry relative="1" as="geometry" />
        </mxCell>
        <mxCell id="AwRWMF-0MMhbJyFxjmx6-52" style="edgeStyle=orthogonalEdgeStyle;rounded=0;orthogonalLoop=1;jettySize=auto;html=1;exitX=1;exitY=0.5;exitDx=0;exitDy=0;" edge="1" parent="1" source="AwRWMF-0MMhbJyFxjmx6-14" target="AwRWMF-0MMhbJyFxjmx6-41">
          <mxGeometry relative="1" as="geometry" />
        </mxCell>
        <mxCell id="AwRWMF-0MMhbJyFxjmx6-53" style="edgeStyle=orthogonalEdgeStyle;rounded=0;orthogonalLoop=1;jettySize=auto;html=1;exitX=0.5;exitY=1;exitDx=0;exitDy=0;" edge="1" parent="1">
          <mxGeometry relative="1" as="geometry">
            <mxPoint x="401" y="360" as="sourcePoint" />
            <mxPoint x="401" y="417" as="targetPoint" />
          </mxGeometry>
        </mxCell>
        <mxCell id="AwRWMF-0MMhbJyFxjmx6-14" value="input a , b , c" style="shape=parallelogram;perimeter=parallelogramPerimeter;whiteSpace=wrap;html=1;fixedSize=1;" vertex="1" parent="1">
          <mxGeometry x="290" y="300" width="210" height="60" as="geometry" />
        </mxCell>
        <mxCell id="AwRWMF-0MMhbJyFxjmx6-28" style="edgeStyle=orthogonalEdgeStyle;rounded=0;orthogonalLoop=1;jettySize=auto;html=1;" edge="1" parent="1" source="AwRWMF-0MMhbJyFxjmx6-17" target="AwRWMF-0MMhbJyFxjmx6-24">
          <mxGeometry relative="1" as="geometry" />
        </mxCell>
        <mxCell id="AwRWMF-0MMhbJyFxjmx6-40" style="edgeStyle=orthogonalEdgeStyle;rounded=0;orthogonalLoop=1;jettySize=auto;html=1;exitX=1;exitY=0.5;exitDx=0;exitDy=0;entryX=0;entryY=0.5;entryDx=0;entryDy=0;" edge="1" parent="1" source="AwRWMF-0MMhbJyFxjmx6-17" target="AwRWMF-0MMhbJyFxjmx6-37">
          <mxGeometry relative="1" as="geometry" />
        </mxCell>
        <mxCell id="AwRWMF-0MMhbJyFxjmx6-17" value="a&amp;gt;b" style="rhombus;whiteSpace=wrap;html=1;" vertex="1" parent="1">
          <mxGeometry x="140" y="417" width="80" height="80" as="geometry" />
        </mxCell>
        <mxCell id="AwRWMF-0MMhbJyFxjmx6-58" style="edgeStyle=orthogonalEdgeStyle;rounded=0;orthogonalLoop=1;jettySize=auto;html=1;exitX=0.5;exitY=1;exitDx=0;exitDy=0;entryX=0;entryY=0.5;entryDx=0;entryDy=0;" edge="1" parent="1" source="AwRWMF-0MMhbJyFxjmx6-24" target="AwRWMF-0MMhbJyFxjmx6-54">
          <mxGeometry relative="1" as="geometry" />
        </mxCell>
        <mxCell id="AwRWMF-0MMhbJyFxjmx6-24" value="print-a" style="shape=parallelogram;perimeter=parallelogramPerimeter;whiteSpace=wrap;html=1;fixedSize=1;" vertex="1" parent="1">
          <mxGeometry x="120" y="590" width="120" height="60" as="geometry" />
        </mxCell>
        <mxCell id="AwRWMF-0MMhbJyFxjmx6-33" value="true" style="text;html=1;align=center;verticalAlign=middle;resizable=0;points=[];autosize=1;strokeColor=none;fillColor=none;" vertex="1" parent="1">
          <mxGeometry x="173" y="516" width="40" height="30" as="geometry" />
        </mxCell>
        <mxCell id="AwRWMF-0MMhbJyFxjmx6-39" style="edgeStyle=orthogonalEdgeStyle;rounded=0;orthogonalLoop=1;jettySize=auto;html=1;entryX=0.5;entryY=0;entryDx=0;entryDy=0;" edge="1" parent="1" source="AwRWMF-0MMhbJyFxjmx6-37" target="AwRWMF-0MMhbJyFxjmx6-38">
          <mxGeometry relative="1" as="geometry" />
        </mxCell>
        <mxCell id="AwRWMF-0MMhbJyFxjmx6-44" style="edgeStyle=orthogonalEdgeStyle;rounded=0;orthogonalLoop=1;jettySize=auto;html=1;exitX=1;exitY=0.5;exitDx=0;exitDy=0;entryX=0;entryY=0.5;entryDx=0;entryDy=0;" edge="1" parent="1" source="AwRWMF-0MMhbJyFxjmx6-37" target="AwRWMF-0MMhbJyFxjmx6-41">
          <mxGeometry relative="1" as="geometry" />
        </mxCell>
        <mxCell id="AwRWMF-0MMhbJyFxjmx6-37" value="a&amp;gt;c" style="rhombus;whiteSpace=wrap;html=1;" vertex="1" parent="1">
          <mxGeometry x="360" y="417" width="80" height="80" as="geometry" />
        </mxCell>
        <mxCell id="AwRWMF-0MMhbJyFxjmx6-56" style="edgeStyle=orthogonalEdgeStyle;rounded=0;orthogonalLoop=1;jettySize=auto;html=1;exitX=0.5;exitY=1;exitDx=0;exitDy=0;entryX=0.5;entryY=0;entryDx=0;entryDy=0;" edge="1" parent="1" source="AwRWMF-0MMhbJyFxjmx6-38" target="AwRWMF-0MMhbJyFxjmx6-54">
          <mxGeometry relative="1" as="geometry" />
        </mxCell>
        <mxCell id="AwRWMF-0MMhbJyFxjmx6-38" value="print-c" style="shape=parallelogram;perimeter=parallelogramPerimeter;whiteSpace=wrap;html=1;fixedSize=1;" vertex="1" parent="1">
          <mxGeometry x="340" y="590" width="120" height="60" as="geometry" />
        </mxCell>
        <mxCell id="AwRWMF-0MMhbJyFxjmx6-42" style="edgeStyle=orthogonalEdgeStyle;rounded=0;orthogonalLoop=1;jettySize=auto;html=1;entryX=0.5;entryY=0;entryDx=0;entryDy=0;" edge="1" parent="1" source="AwRWMF-0MMhbJyFxjmx6-41" target="AwRWMF-0MMhbJyFxjmx6-43">
          <mxGeometry relative="1" as="geometry">
            <mxPoint x="740" y="580" as="targetPoint" />
          </mxGeometry>
        </mxCell>
        <mxCell id="AwRWMF-0MMhbJyFxjmx6-46" style="edgeStyle=orthogonalEdgeStyle;rounded=0;orthogonalLoop=1;jettySize=auto;html=1;entryX=1;entryY=0.5;entryDx=0;entryDy=0;" edge="1" parent="1" source="AwRWMF-0MMhbJyFxjmx6-41" target="AwRWMF-0MMhbJyFxjmx6-38">
          <mxGeometry relative="1" as="geometry">
            <Array as="points">
              <mxPoint x="570" y="620" />
            </Array>
          </mxGeometry>
        </mxCell>
        <mxCell id="AwRWMF-0MMhbJyFxjmx6-41" value="c&amp;gt;b" style="rhombus;whiteSpace=wrap;html=1;" vertex="1" parent="1">
          <mxGeometry x="530" y="417" width="80" height="80" as="geometry" />
        </mxCell>
        <mxCell id="AwRWMF-0MMhbJyFxjmx6-57" style="edgeStyle=orthogonalEdgeStyle;rounded=0;orthogonalLoop=1;jettySize=auto;html=1;exitX=0.5;exitY=1;exitDx=0;exitDy=0;entryX=1;entryY=0.5;entryDx=0;entryDy=0;" edge="1" parent="1" source="AwRWMF-0MMhbJyFxjmx6-43" target="AwRWMF-0MMhbJyFxjmx6-54">
          <mxGeometry relative="1" as="geometry" />
        </mxCell>
        <mxCell id="AwRWMF-0MMhbJyFxjmx6-43" value="print b" style="shape=parallelogram;perimeter=parallelogramPerimeter;whiteSpace=wrap;html=1;fixedSize=1;" vertex="1" parent="1">
          <mxGeometry x="640" y="590" width="120" height="60" as="geometry" />
        </mxCell>
        <mxCell id="AwRWMF-0MMhbJyFxjmx6-47" value="false" style="text;html=1;align=center;verticalAlign=middle;resizable=0;points=[];autosize=1;strokeColor=none;fillColor=none;" vertex="1" parent="1">
          <mxGeometry x="264" y="434" width="50" height="30" as="geometry" />
        </mxCell>
        <mxCell id="AwRWMF-0MMhbJyFxjmx6-48" value="true" style="text;html=1;align=center;verticalAlign=middle;resizable=0;points=[];autosize=1;strokeColor=none;fillColor=none;" vertex="1" parent="1">
          <mxGeometry x="393" y="516" width="40" height="30" as="geometry" />
        </mxCell>
        <mxCell id="AwRWMF-0MMhbJyFxjmx6-49" value="true" style="text;html=1;align=center;verticalAlign=middle;resizable=0;points=[];autosize=1;strokeColor=none;fillColor=none;" vertex="1" parent="1">
          <mxGeometry x="694" y="516" width="40" height="30" as="geometry" />
        </mxCell>
        <mxCell id="AwRWMF-0MMhbJyFxjmx6-50" value="false" style="text;html=1;align=center;verticalAlign=middle;resizable=0;points=[];autosize=1;strokeColor=none;fillColor=none;" vertex="1" parent="1">
          <mxGeometry x="450" y="434" width="50" height="30" as="geometry" />
        </mxCell>
        <mxCell id="AwRWMF-0MMhbJyFxjmx6-51" value="false" style="text;html=1;align=center;verticalAlign=middle;resizable=0;points=[];autosize=1;strokeColor=none;fillColor=none;" vertex="1" parent="1">
          <mxGeometry x="560" y="516" width="50" height="30" as="geometry" />
        </mxCell>
        <mxCell id="AwRWMF-0MMhbJyFxjmx6-54" value="end" style="ellipse;whiteSpace=wrap;html=1;" vertex="1" parent="1">
          <mxGeometry x="340" y="720" width="120" height="80" as="geometry" />
        </mxCell>
      </root>
    </mxGraphModel>
  </diagram>
</mxfile>
